<mxfile host="app.diagrams.net" modified="2023-08-27T12:58:04.654Z" agent="Mozilla/5.0 (Windows NT 10.0; Win64; x64) AppleWebKit/537.36 (KHTML, like Gecko) Chrome/116.0.0.0 Safari/537.36" etag="pLmAqAXISlI0nTlO0J3S" version="21.6.9" type="github">
  <diagram name="Página-1" id="l-NhUE6gXf0gKrMucXpK">
    <mxGraphModel dx="1600" dy="796" grid="1" gridSize="10" guides="1" tooltips="1" connect="1" arrows="1" fold="1" page="1" pageScale="1" pageWidth="827" pageHeight="1169" math="0" shadow="0">
      <root>
        <mxCell id="0" />
        <mxCell id="1" parent="0" />
        <mxCell id="ZSHt7KCe1CXZ1W5EvaFV-32" style="edgeStyle=orthogonalEdgeStyle;rounded=0;orthogonalLoop=1;jettySize=auto;html=1;exitX=1;exitY=0.5;exitDx=0;exitDy=0;entryX=0;entryY=0.5;entryDx=0;entryDy=0;" edge="1" parent="1" source="ZSHt7KCe1CXZ1W5EvaFV-3" target="ZSHt7KCe1CXZ1W5EvaFV-26">
          <mxGeometry relative="1" as="geometry" />
        </mxCell>
        <mxCell id="ZSHt7KCe1CXZ1W5EvaFV-36" value="Envio de confirmação SQS" style="edgeLabel;html=1;align=center;verticalAlign=middle;resizable=0;points=[];" vertex="1" connectable="0" parent="ZSHt7KCe1CXZ1W5EvaFV-32">
          <mxGeometry x="-0.1381" y="1" relative="1" as="geometry">
            <mxPoint y="1" as="offset" />
          </mxGeometry>
        </mxCell>
        <mxCell id="ZSHt7KCe1CXZ1W5EvaFV-3" value="" style="rounded=1;arcSize=10;dashed=0;fillColor=none;gradientColor=none;strokeWidth=2;" vertex="1" parent="1">
          <mxGeometry x="270" y="105" width="320" height="285" as="geometry" />
        </mxCell>
        <mxCell id="ZSHt7KCe1CXZ1W5EvaFV-16" style="edgeStyle=orthogonalEdgeStyle;rounded=0;orthogonalLoop=1;jettySize=auto;html=1;exitX=0.5;exitY=0.2;exitDx=0;exitDy=0;exitPerimeter=0;entryX=0.06;entryY=0.5;entryDx=0;entryDy=0;entryPerimeter=0;" edge="1" parent="1" source="ZSHt7KCe1CXZ1W5EvaFV-1">
          <mxGeometry relative="1" as="geometry">
            <mxPoint x="363.4000000000001" y="150" as="targetPoint" />
            <Array as="points">
              <mxPoint x="103" y="150" />
            </Array>
          </mxGeometry>
        </mxCell>
        <mxCell id="ZSHt7KCe1CXZ1W5EvaFV-21" value="Cria Bucket" style="edgeLabel;html=1;align=center;verticalAlign=middle;resizable=0;points=[];" vertex="1" connectable="0" parent="ZSHt7KCe1CXZ1W5EvaFV-16">
          <mxGeometry x="0.0301" relative="1" as="geometry">
            <mxPoint as="offset" />
          </mxGeometry>
        </mxCell>
        <mxCell id="ZSHt7KCe1CXZ1W5EvaFV-17" style="edgeStyle=orthogonalEdgeStyle;rounded=0;orthogonalLoop=1;jettySize=auto;html=1;entryX=0;entryY=0.5;entryDx=0;entryDy=0;entryPerimeter=0;" edge="1" parent="1" source="ZSHt7KCe1CXZ1W5EvaFV-1">
          <mxGeometry relative="1" as="geometry">
            <mxPoint x="363" y="233" as="targetPoint" />
          </mxGeometry>
        </mxCell>
        <mxCell id="ZSHt7KCe1CXZ1W5EvaFV-22" value="Cria arquivos" style="edgeLabel;html=1;align=center;verticalAlign=middle;resizable=0;points=[];" vertex="1" connectable="0" parent="ZSHt7KCe1CXZ1W5EvaFV-17">
          <mxGeometry x="-0.4167" y="-1" relative="1" as="geometry">
            <mxPoint as="offset" />
          </mxGeometry>
        </mxCell>
        <mxCell id="ZSHt7KCe1CXZ1W5EvaFV-18" style="edgeStyle=orthogonalEdgeStyle;rounded=0;orthogonalLoop=1;jettySize=auto;html=1;entryX=0.06;entryY=0.5;entryDx=0;entryDy=0;entryPerimeter=0;" edge="1" parent="1" source="ZSHt7KCe1CXZ1W5EvaFV-1" target="ZSHt7KCe1CXZ1W5EvaFV-14">
          <mxGeometry relative="1" as="geometry">
            <mxPoint x="320.4000000000001" y="330" as="targetPoint" />
            <Array as="points">
              <mxPoint x="103" y="330" />
            </Array>
          </mxGeometry>
        </mxCell>
        <mxCell id="ZSHt7KCe1CXZ1W5EvaFV-24" value="Lista Buckets e seus arquivos" style="edgeLabel;html=1;align=center;verticalAlign=middle;resizable=0;points=[];" vertex="1" connectable="0" parent="ZSHt7KCe1CXZ1W5EvaFV-18">
          <mxGeometry x="0.085" relative="1" as="geometry">
            <mxPoint x="-19" as="offset" />
          </mxGeometry>
        </mxCell>
        <mxCell id="ZSHt7KCe1CXZ1W5EvaFV-1" value="users and code" style="outlineConnect=0;dashed=0;verticalLabelPosition=bottom;verticalAlign=top;align=center;html=1;shape=mxgraph.aws3.users;fillColor=#ACACAC;gradientColor=none;" vertex="1" parent="1">
          <mxGeometry x="78" y="208" width="50" height="50" as="geometry" />
        </mxCell>
        <mxCell id="ZSHt7KCe1CXZ1W5EvaFV-5" value="" style="outlineConnect=0;dashed=0;verticalLabelPosition=bottom;verticalAlign=top;align=center;html=1;shape=mxgraph.aws3.s3;fillColor=#E05243;gradientColor=none;" vertex="1" parent="1">
          <mxGeometry x="300" y="89" width="30" height="30" as="geometry" />
        </mxCell>
        <mxCell id="ZSHt7KCe1CXZ1W5EvaFV-6" value="&lt;font style=&quot;font-size: 11px;&quot;&gt;Bucket&lt;/font&gt;" style="outlineConnect=0;dashed=0;verticalLabelPosition=bottom;verticalAlign=top;align=center;html=1;shape=mxgraph.aws3.bucket;fillColor=#E05243;gradientColor=none;" vertex="1" parent="1">
          <mxGeometry x="359" y="130" width="40" height="40" as="geometry" />
        </mxCell>
        <mxCell id="ZSHt7KCe1CXZ1W5EvaFV-20" style="edgeStyle=orthogonalEdgeStyle;rounded=0;orthogonalLoop=1;jettySize=auto;html=1;entryX=0.94;entryY=0.5;entryDx=0;entryDy=0;entryPerimeter=0;" edge="1" parent="1" source="ZSHt7KCe1CXZ1W5EvaFV-8" target="ZSHt7KCe1CXZ1W5EvaFV-6">
          <mxGeometry relative="1" as="geometry">
            <Array as="points">
              <mxPoint x="459" y="233" />
              <mxPoint x="459" y="150" />
            </Array>
          </mxGeometry>
        </mxCell>
        <mxCell id="ZSHt7KCe1CXZ1W5EvaFV-25" value="Armazena arquivos no Buckets" style="edgeLabel;html=1;align=center;verticalAlign=middle;resizable=0;points=[];" vertex="1" connectable="0" parent="ZSHt7KCe1CXZ1W5EvaFV-20">
          <mxGeometry x="-0.055" y="1" relative="1" as="geometry">
            <mxPoint x="34" as="offset" />
          </mxGeometry>
        </mxCell>
        <mxCell id="ZSHt7KCe1CXZ1W5EvaFV-8" value="&lt;font style=&quot;font-size: 12px;&quot;&gt;Relatório&lt;/font&gt;" style="outlineConnect=0;dashed=0;verticalLabelPosition=bottom;verticalAlign=top;align=center;html=1;shape=mxgraph.aws3.traditional_server;fillColor=#7D7C7C;gradientColor=none;" vertex="1" parent="1">
          <mxGeometry x="361" y="213" width="36" height="40" as="geometry" />
        </mxCell>
        <mxCell id="ZSHt7KCe1CXZ1W5EvaFV-14" value="&lt;font style=&quot;font-size: 11px;&quot;&gt;Bucket&lt;/font&gt;" style="outlineConnect=0;dashed=0;verticalLabelPosition=bottom;verticalAlign=top;align=center;html=1;shape=mxgraph.aws3.bucket;fillColor=#E05243;gradientColor=none;" vertex="1" parent="1">
          <mxGeometry x="359" y="310" width="40" height="40" as="geometry" />
        </mxCell>
        <mxCell id="ZSHt7KCe1CXZ1W5EvaFV-42" style="edgeStyle=orthogonalEdgeStyle;rounded=0;orthogonalLoop=1;jettySize=auto;html=1;" edge="1" parent="1" source="ZSHt7KCe1CXZ1W5EvaFV-26" target="ZSHt7KCe1CXZ1W5EvaFV-37">
          <mxGeometry relative="1" as="geometry" />
        </mxCell>
        <mxCell id="ZSHt7KCe1CXZ1W5EvaFV-44" value="Recepção de confirmação" style="edgeLabel;html=1;align=center;verticalAlign=middle;resizable=0;points=[];" vertex="1" connectable="0" parent="ZSHt7KCe1CXZ1W5EvaFV-42">
          <mxGeometry x="-0.0337" y="-2" relative="1" as="geometry">
            <mxPoint y="-2" as="offset" />
          </mxGeometry>
        </mxCell>
        <mxCell id="ZSHt7KCe1CXZ1W5EvaFV-26" value="" style="rounded=1;arcSize=10;dashed=0;fillColor=none;gradientColor=none;strokeWidth=2;" vertex="1" parent="1">
          <mxGeometry x="791" y="207" width="320" height="80" as="geometry" />
        </mxCell>
        <mxCell id="ZSHt7KCe1CXZ1W5EvaFV-27" value="" style="outlineConnect=0;dashed=0;verticalLabelPosition=bottom;verticalAlign=top;align=center;html=1;shape=mxgraph.aws3.sqs;fillColor=#D9A741;gradientColor=none;" vertex="1" parent="1">
          <mxGeometry x="811" y="190" width="30" height="30" as="geometry" />
        </mxCell>
        <mxCell id="ZSHt7KCe1CXZ1W5EvaFV-30" value="" style="edgeStyle=orthogonalEdgeStyle;rounded=0;orthogonalLoop=1;jettySize=auto;html=1;" edge="1" parent="1" source="ZSHt7KCe1CXZ1W5EvaFV-28" target="ZSHt7KCe1CXZ1W5EvaFV-29">
          <mxGeometry relative="1" as="geometry" />
        </mxCell>
        <mxCell id="ZSHt7KCe1CXZ1W5EvaFV-28" value="" style="outlineConnect=0;dashed=0;verticalLabelPosition=bottom;verticalAlign=top;align=center;html=1;shape=mxgraph.aws3.sqs;fillColor=#D9A741;gradientColor=none;" vertex="1" parent="1">
          <mxGeometry x="851" y="227" width="40" height="40" as="geometry" />
        </mxCell>
        <mxCell id="ZSHt7KCe1CXZ1W5EvaFV-29" value="Confirmação SQS" style="whiteSpace=wrap;html=1;verticalAlign=top;fillColor=#D9A741;dashed=0;gradientColor=none;" vertex="1" parent="1">
          <mxGeometry x="931" y="233" width="120" height="28" as="geometry" />
        </mxCell>
        <mxCell id="ZSHt7KCe1CXZ1W5EvaFV-37" value="" style="rounded=1;arcSize=10;dashed=0;fillColor=none;gradientColor=none;strokeWidth=2;" vertex="1" parent="1">
          <mxGeometry x="1298" y="207" width="320" height="80" as="geometry" />
        </mxCell>
        <mxCell id="ZSHt7KCe1CXZ1W5EvaFV-38" value="" style="outlineConnect=0;dashed=0;verticalLabelPosition=bottom;verticalAlign=top;align=center;html=1;shape=mxgraph.aws3.management_console;fillColor=#D2D3D3;gradientColor=none;" vertex="1" parent="1">
          <mxGeometry x="1318" y="191" width="30" height="30" as="geometry" />
        </mxCell>
        <mxCell id="ZSHt7KCe1CXZ1W5EvaFV-41" value="" style="edgeStyle=orthogonalEdgeStyle;rounded=0;orthogonalLoop=1;jettySize=auto;html=1;" edge="1" parent="1" source="ZSHt7KCe1CXZ1W5EvaFV-39" target="ZSHt7KCe1CXZ1W5EvaFV-40">
          <mxGeometry relative="1" as="geometry" />
        </mxCell>
        <mxCell id="ZSHt7KCe1CXZ1W5EvaFV-39" value="" style="outlineConnect=0;dashed=0;verticalLabelPosition=bottom;verticalAlign=top;align=center;html=1;shape=mxgraph.aws3.management_console;fillColor=#D2D3D3;gradientColor=none;" vertex="1" parent="1">
          <mxGeometry x="1343" y="229.5" width="35" height="35" as="geometry" />
        </mxCell>
        <mxCell id="ZSHt7KCe1CXZ1W5EvaFV-40" value="Notificação de recebimento" style="whiteSpace=wrap;html=1;verticalAlign=top;fillColor=#D2D3D3;dashed=0;gradientColor=none;" vertex="1" parent="1">
          <mxGeometry x="1415.5" y="230.75" width="157.5" height="32.5" as="geometry" />
        </mxCell>
        <mxCell id="ZSHt7KCe1CXZ1W5EvaFV-46" value="Amazon S3" style="text;html=1;align=center;verticalAlign=middle;resizable=0;points=[];autosize=1;strokeColor=none;fillColor=none;" vertex="1" parent="1">
          <mxGeometry x="321" y="83" width="90" height="30" as="geometry" />
        </mxCell>
        <mxCell id="ZSHt7KCe1CXZ1W5EvaFV-48" value="Amazon SQS" style="text;html=1;align=center;verticalAlign=middle;resizable=0;points=[];autosize=1;strokeColor=none;fillColor=none;" vertex="1" parent="1">
          <mxGeometry x="832" y="185" width="100" height="30" as="geometry" />
        </mxCell>
        <mxCell id="ZSHt7KCe1CXZ1W5EvaFV-49" value="Receiver" style="text;html=1;align=center;verticalAlign=middle;resizable=0;points=[];autosize=1;strokeColor=none;fillColor=none;" vertex="1" parent="1">
          <mxGeometry x="1341" y="185" width="70" height="30" as="geometry" />
        </mxCell>
      </root>
    </mxGraphModel>
  </diagram>
</mxfile>
